<svg id="Layer_1" data-name="Layer 1" xmlns="http://www.w3.org/2000/svg" xmlns:xlink="http://www.w3.org/1999/xlink" viewBox="0 0 697.64 289.31"><defs><style>.cls-1,.cls-5{fill:none;}.cls-2{fill:#203c8a;}.cls-3{fill:#ffcd02;}.cls-4{clip-path:url(#clip-path);}.cls-5{stroke:#ea5b0c;stroke-width:1.35px;}.cls-6{clip-path:url(#clip-path-2);}.cls-7{fill:url(#linear-gradient);}.cls-8{fill:#ea5b0c;}.cls-9{fill:#1d1d1b;}</style><clipPath id="clip-path" transform="translate(-21.49 -22.87)"><rect class="cls-1" x="21.49" y="22.87" width="697.64" height="289.31"/></clipPath><clipPath id="clip-path-2" transform="translate(-21.49 -22.87)"><path class="cls-1" d="M628.37,216.37a1.86,1.86,0,1,0,2.57.54,1.84,1.84,0,0,0-1.55-.84,1.88,1.88,0,0,0-1,.3m15.94-12.95a1.86,1.86,0,1,0,1.31-.54,1.86,1.86,0,0,0-1.31.54m-14.22-1a2.32,2.32,0,1,0,1.26-.37,2.33,2.33,0,0,0-1.26.37m-14.22-3.49a3.63,3.63,0,1,0,1.95-.57,3.64,3.64,0,0,0-1.95.57m39.77-8.82a1.87,1.87,0,1,0,1.51-.77,1.87,1.87,0,0,0-1.51.77m-12.28-.84a2.33,2.33,0,1,0,3.28,0,2.3,2.3,0,0,0-1.65-.7,2.32,2.32,0,0,0-1.63.66m-14.59-.63a3.64,3.64,0,1,0,2.53-1,3.64,3.64,0,0,0-2.53,1m-13.16-4.32a3.82,3.82,0,1,0,2.07-.62,3.82,3.82,0,0,0-2.07.62M603.47,179a4.49,4.49,0,1,0,2.41-.71,4.48,4.48,0,0,0-2.41.71m36.15-3.47a3.63,3.63,0,1,0,5-1,3.61,3.61,0,0,0-5,1m-14.42-.8a3.81,3.81,0,1,0,2.65-1.07,3.82,3.82,0,0,0-2.65,1.07m28.18-.38a2.33,2.33,0,1,0,3.23-.6,2.29,2.29,0,0,0-1.31-.41,2.33,2.33,0,0,0-1.92,1m12.76-2.76a1.86,1.86,0,1,0,1.7-1.1,1.86,1.86,0,0,0-1.7,1.1m-53.68.05a4.48,4.48,0,1,0,3.15-1.3,4.48,4.48,0,0,0-3.15,1.3m-13.07-6.6a5.15,5.15,0,1,0,3.19-1.11,5.15,5.15,0,0,0-3.19,1.11m20.22-1.92a4.48,4.48,0,1,0,3.7-2,4.48,4.48,0,0,0-3.7,2m13.62-.44a3.82,3.82,0,1,0,3.16-1.67,3.82,3.82,0,0,0-3.16,1.67m13.75-.81a3.62,3.62,0,1,0,3.33-2.21,3.63,3.63,0,0,0-3.33,2.21m-61.68-6.55a6,6,0,1,0,1.84-.29,6,6,0,0,0-1.84.29m75.51,1.06a2.32,2.32,0,1,0,2.15-1.44,2.33,2.33,0,0,0-2.15,1.44m-51.74-2a5.15,5.15,0,1,0,4.31-2.33,5.15,5.15,0,0,0-4.31,2.33m16.37-2a4.48,4.48,0,1,0,4.15-2.77,4.47,4.47,0,0,0-4.15,2.77m12.78-1.82a3.82,3.82,0,1,0,3.5-2.3,3.82,3.82,0,0,0-3.5,2.3m34.8-1.07a1.86,1.86,0,1,0,2.19-1.47,1.93,1.93,0,0,0-.36,0,1.87,1.87,0,0,0-1.83,1.5m-78.45-2.08a6,6,0,1,0,4-1.54,6,6,0,0,0-4,1.54m57.19-.9a3.63,3.63,0,1,0,4.3-2.81,3.72,3.72,0,0,0-.75-.08,3.62,3.62,0,0,0-3.55,2.88m-37.6-2.86a5.14,5.14,0,1,0,4.89-3.56,5.14,5.14,0,0,0-4.89,3.56m14.52-1.68a4.47,4.47,0,1,0,4.39-3.57,4.48,4.48,0,0,0-4.39,3.57m35.61-4a2.32,2.32,0,1,0,2.28-1.89,2.32,2.32,0,0,0-2.28,1.89M640.86,138a3.81,3.81,0,1,0,3.71-3,3.81,3.81,0,0,0-3.71,3m-41.23-.75a6,6,0,1,0,5.43-3.45,6,6,0,0,0-5.43,3.45m77.09-10.46a1.86,1.86,0,1,0,1.88,1.84,1.86,1.86,0,0,0-1.88-1.84h0m-42.33-.56a4.48,4.48,0,1,0,4.5,4.52,4.48,4.48,0,0,0-4.5-4.52h0m-18.1,4.67a5.14,5.14,0,1,0,5.26-5h-.12a5.15,5.15,0,0,0-5.14,5M657,125.49a3.63,3.63,0,1,0,3.66,3.6,3.62,3.62,0,0,0-3.66-3.6h0m-12.28-6.57a3.82,3.82,0,1,0,3.82,3.85,3.82,3.82,0,0,0-3.82-3.85h0m-38.59,0a6,6,0,1,0,.06,0h-.06m60-2.81a2.33,2.33,0,1,0,2.38,2.28,2.32,2.32,0,0,0-2.38-2.28h0m-34.39-3.18a4.47,4.47,0,1,0,1-.12,4.53,4.53,0,0,0-1,.12m-14.73-3a5.15,5.15,0,1,0,1.59-.25,5.14,5.14,0,0,0-1.59.25m37.38-1.31a3.63,3.63,0,1,0,.75-.08,3.68,3.68,0,0,0-.75.08M674,106.13a1.85,1.85,0,1,0,.39,0,1.85,1.85,0,0,0-.39,0m-75.73-1a6,6,0,1,0,2.49-.55,6,6,0,0,0-2.49.55m42.7-1a3.82,3.82,0,1,0,.75-.07,3.86,3.86,0,0,0-.75.07m-13.44-3.07a4.48,4.48,0,1,0,1.78-.37,4.48,4.48,0,0,0-1.78.37m34.68-1.58a2.32,2.32,0,1,0,.47,0,2.4,2.4,0,0,0-.47,0m-54.84-4a5.14,5.14,0,1,0,3.15-1.08,5.14,5.14,0,0,0-3.15,1.08m-22.09.61A6,6,0,1,0,589.88,94a6,6,0,0,0-4.58,2.12M649,93.5a3.63,3.63,0,1,0,1.39-.28,3.63,3.63,0,0,0-1.39.28m-14.12-2a3.8,3.8,0,1,0,1.44-.28,3.82,3.82,0,0,0-1.44.28m-13.32-.07A4.48,4.48,0,1,0,624,90.7a4.48,4.48,0,0,0-2.43.72m46.37-3.65a1.86,1.86,0,1,0,.71-.14,1.87,1.87,0,0,0-.71.14m-12.6-3.94a2.33,2.33,0,1,0,.86-.16,2.34,2.34,0,0,0-.86.16m-60.83,2a5.14,5.14,0,1,0,4.29-2.29,5.14,5.14,0,0,0-4.29,2.29m18.3-3.48A4.48,4.48,0,1,0,616,81a4.48,4.48,0,0,0-3.18,1.32m28.61-1.86a3.64,3.64,0,1,0,2-.57,3.63,3.63,0,0,0-2,.57m-15.26-.69a3.81,3.81,0,1,0,2.09-.63,3.77,3.77,0,0,0-2.09.63M603,75.4a4.48,4.48,0,1,0,3.72-2,4.48,4.48,0,0,0-3.72,2M658,70a1.86,1.86,0,1,0,1-.31,1.85,1.85,0,0,0-1,.31m-42.77,0a3.81,3.81,0,1,0,2.68-1.1,3.82,3.82,0,0,0-2.68,1.1m28.83-2.38a2.33,2.33,0,1,0,1.28-.39,2.33,2.33,0,0,0-1.28.39M629.49,67A3.63,3.63,0,1,0,632,65.9,3.62,3.62,0,0,0,629.49,67m-13.6-10.22a3.63,3.63,0,1,0,3-1.61,3.62,3.62,0,0,0-3,1.61M645.32,55a1.87,1.87,0,1,0,1.3-.53,1.87,1.87,0,0,0-1.3.53M631,55.07a2.31,2.31,0,1,0,1.63-.67,2.32,2.32,0,0,0-1.63.67M629.7,42.29a1.86,1.86,0,1,0,1.53-.8,1.86,1.86,0,0,0-1.53.8"/></clipPath><linearGradient id="linear-gradient" x1="-48.78" y1="465.51" x2="-47.78" y2="465.51" gradientTransform="matrix(97.18, 0, 0, -97.18, 5300.33, 45343.93)" gradientUnits="userSpaceOnUse"><stop offset="0" stop-color="#ea5b0c"/><stop offset="1" stop-color="#fff"/></linearGradient></defs><title>LOGO_ERC-FLAG_EU</title><rect class="cls-2" y="29.1" width="340.62" height="227.59"/><polygon class="cls-3" points="236.44 168.18 239.28 176.92 248.47 176.92 241.03 182.32 243.88 191.06 236.44 185.66 229.01 191.06 231.85 182.32 224.42 176.92 233.6 176.92 236.44 168.18"/><polygon class="cls-3" points="104.95 168.18 107.78 176.92 116.97 176.92 109.54 182.32 112.38 191.06 104.95 185.66 97.51 191.06 100.35 182.32 92.92 176.92 102.11 176.92 104.95 168.18"/><polygon class="cls-3" points="104.95 92.31 107.78 101.05 116.97 101.05 109.54 106.45 112.38 115.19 104.95 109.79 97.51 115.19 100.35 106.45 92.92 101.05 102.11 101.05 104.95 92.31"/><polygon class="cls-3" points="236.44 92.31 239.28 101.05 248.47 101.05 241.03 106.45 243.88 115.19 236.44 109.79 229.01 115.19 231.85 106.45 224.42 101.05 233.6 101.05 236.44 92.31"/><polygon class="cls-3" points="132.76 196 135.6 204.73 144.79 204.73 137.36 210.13 140.19 218.87 132.76 213.47 125.33 218.87 128.17 210.13 120.74 204.73 129.93 204.73 132.76 196"/><polygon class="cls-3" points="208.63 196 211.46 204.73 220.65 204.73 213.22 210.13 216.06 218.87 208.63 213.47 201.19 218.87 204.03 210.13 196.6 204.73 205.79 204.73 208.63 196"/><polygon class="cls-3" points="132.76 64.5 135.6 73.24 144.79 73.24 137.36 78.64 140.19 87.37 132.76 81.97 125.33 87.37 128.17 78.64 120.74 73.24 129.93 73.24 132.76 64.5"/><polygon class="cls-3" points="208.63 64.5 211.46 73.24 220.65 73.24 213.22 78.64 216.06 87.37 208.63 81.97 201.19 87.37 204.03 78.64 196.6 73.24 205.79 73.24 208.63 64.5"/><polygon class="cls-3" points="246.56 130.25 249.4 138.99 258.58 138.99 251.15 144.39 253.99 153.12 246.56 147.72 239.13 153.12 241.96 144.39 234.53 138.99 243.72 138.99 246.56 130.25"/><polygon class="cls-3" points="94.83 130.25 97.67 138.99 106.85 138.99 99.42 144.39 102.26 153.12 94.83 147.72 87.4 153.12 90.23 144.39 82.8 138.99 91.99 138.99 94.83 130.25"/><polygon class="cls-3" points="170.69 206.11 173.53 214.85 182.72 214.85 175.29 220.25 178.13 228.99 170.69 223.59 163.26 228.99 166.1 220.25 158.67 214.85 167.86 214.85 170.69 206.11"/><polygon class="cls-3" points="170.69 54.38 173.53 63.12 182.72 63.12 175.29 68.52 178.13 77.26 170.69 71.86 163.26 77.26 166.1 68.52 158.67 63.12 167.86 63.12 170.69 54.38"/><g class="cls-4"><line class="cls-5" x1="361.82" x2="361.82" y2="289.31"/></g><g class="cls-6"><rect class="cls-7" x="558.91" y="18.61" width="98.21" height="178.56"/></g><g class="cls-4"><path class="cls-8" d="M581.59,96.7a6,6,0,1,1-4.16-7.39,6,6,0,0,1,4.16,7.39" transform="translate(-21.49 -22.87)"/><path class="cls-8" d="M567.66,164.15a6,6,0,1,1,5.44,6.51,6,6,0,0,1-5.44-6.51" transform="translate(-21.49 -22.87)"/><path class="cls-8" d="M554.72,160a6,6,0,1,1,2.5,8.1,6,6,0,0,1-2.5-8.1" transform="translate(-21.49 -22.87)"/><path class="cls-8" d="M544,150.72a6,6,0,1,1-1,8.43,6,6,0,0,1,1-8.43" transform="translate(-21.49 -22.87)"/><path class="cls-8" d="M537.95,138a6,6,0,1,1-4.25,7.34,6,6,0,0,1,4.25-7.34" transform="translate(-21.49 -22.87)"/><path class="cls-8" d="M537.36,124.5a6,6,0,1,1-6.73,5.16,6,6,0,0,1,6.73-5.16" transform="translate(-21.49 -22.87)"/><path class="cls-8" d="M542.27,111.35a6,6,0,1,1-8.23,2.06,6,6,0,0,1,8.23-2.06" transform="translate(-21.49 -22.87)"/><path class="cls-8" d="M552,101.24a6,6,0,1,1-8.37-1.38,6,6,0,0,1,8.37,1.38" transform="translate(-21.49 -22.87)"/><path class="cls-8" d="M566.54,95.56a6,6,0,1,1-6.91-4.91,6,6,0,0,1,6.91,4.91" transform="translate(-21.49 -22.87)"/><path class="cls-8" d="M576.77,180a5.14,5.14,0,1,1-5.15-5.14,5.15,5.15,0,0,1,5.15,5.14" transform="translate(-21.49 -22.87)"/><path class="cls-8" d="M592.31,175.75a5.15,5.15,0,1,1-6.51-3.25,5.15,5.15,0,0,1,6.51,3.25" transform="translate(-21.49 -22.87)"/><path class="cls-8" d="M566.16,80.22a5.15,5.15,0,1,1,5,5.3,5.14,5.14,0,0,1-5-5.3" transform="translate(-21.49 -22.87)"/><path class="cls-8" d="M581.39,80.65a5.15,5.15,0,1,1,3.24,6.52,5.15,5.15,0,0,1-3.24-6.52" transform="translate(-21.49 -22.87)"/><path class="cls-8" d="M551,84.49a5.15,5.15,0,1,1,6.44,3.4,5.15,5.15,0,0,1-6.44-3.4" transform="translate(-21.49 -22.87)"/><path class="cls-8" d="M537.08,94a5.15,5.15,0,1,1,7.2,1,5.14,5.14,0,0,1-7.2-1" transform="translate(-21.49 -22.87)"/><path class="cls-8" d="M522.51,120.19a5.15,5.15,0,1,1,6.55-3.16,5.15,5.15,0,0,1-6.55,3.16" transform="translate(-21.49 -22.87)"/><path class="cls-8" d="M527.49,105.72a5.15,5.15,0,1,1,7.16-1.33,5.15,5.15,0,0,1-7.16,1.33" transform="translate(-21.49 -22.87)"/><path class="cls-8" d="M521.64,135.65a5.15,5.15,0,1,1,5.34-5,5.15,5.15,0,0,1-5.34,5" transform="translate(-21.49 -22.87)"/><path class="cls-8" d="M525.71,150.95a5.15,5.15,0,1,1,3.48-6.39,5.14,5.14,0,0,1-3.48,6.39" transform="translate(-21.49 -22.87)"/><path class="cls-8" d="M534.62,164.2a5.15,5.15,0,1,1,1.11-7.2,5.16,5.16,0,0,1-1.11,7.2" transform="translate(-21.49 -22.87)"/><path class="cls-8" d="M559.6,179.12a5.15,5.15,0,1,1-3.06-6.6,5.15,5.15,0,0,1,3.06,6.6" transform="translate(-21.49 -22.87)"/><path class="cls-8" d="M546.6,173.84a5.15,5.15,0,1,1-1.23-7.17,5.15,5.15,0,0,1,1.23,7.17" transform="translate(-21.49 -22.87)"/><path class="cls-8" d="M576.1,67.07a4.48,4.48,0,1,1-4.49-4.48,4.48,4.48,0,0,1,4.49,4.48" transform="translate(-21.49 -22.87)"/><path class="cls-8" d="M588.34,69.2a4.48,4.48,0,1,1-3.51-5.28,4.48,4.48,0,0,1,3.51,5.28" transform="translate(-21.49 -22.87)"/><path class="cls-8" d="M599.34,73.4a4.49,4.49,0,1,1-2.48-5.84,4.49,4.49,0,0,1,2.48,5.84" transform="translate(-21.49 -22.87)"/><path class="cls-8" d="M508.48,125.83a4.48,4.48,0,1,1-4.45,4.52,4.49,4.49,0,0,1,4.45-4.52" transform="translate(-21.49 -22.87)"/><path class="cls-8" d="M510.52,113.59a4.48,4.48,0,1,1-5.25,3.56,4.49,4.49,0,0,1,5.25-3.56" transform="translate(-21.49 -22.87)"/><path class="cls-8" d="M514.63,102.55a4.48,4.48,0,1,1-5.82,2.52,4.49,4.49,0,0,1,5.82-2.52" transform="translate(-21.49 -22.87)"/><path class="cls-8" d="M521.56,91.37a4.48,4.48,0,1,1-6.22,1.26,4.49,4.49,0,0,1,6.22-1.26" transform="translate(-21.49 -22.87)"/><path class="cls-8" d="M529.78,82.63a4.49,4.49,0,1,1-6.34.06,4.49,4.49,0,0,1,6.34-.06" transform="translate(-21.49 -22.87)"/><path class="cls-8" d="M540,75.27A4.48,4.48,0,1,1,533.77,74,4.49,4.49,0,0,1,540,75.27" transform="translate(-21.49 -22.87)"/><path class="cls-8" d="M550.37,70.53a4.48,4.48,0,1,1-5.92-2.3,4.49,4.49,0,0,1,5.92,2.3" transform="translate(-21.49 -22.87)"/><path class="cls-8" d="M562.61,67.72a4.48,4.48,0,1,1-5.41-3.31,4.48,4.48,0,0,1,5.41,3.31" transform="translate(-21.49 -22.87)"/><path class="cls-8" d="M567.24,193a4.49,4.49,0,1,1,4.52,4.45,4.48,4.48,0,0,1-4.52-4.45" transform="translate(-21.49 -22.87)"/><path class="cls-8" d="M555,190.94a4.49,4.49,0,1,1,3.56,5.25,4.49,4.49,0,0,1-3.56-5.25" transform="translate(-21.49 -22.87)"/><path class="cls-8" d="M544,186.83a4.49,4.49,0,1,1,2.52,5.82,4.49,4.49,0,0,1-2.52-5.82" transform="translate(-21.49 -22.87)"/><path class="cls-8" d="M532.78,179.89a4.48,4.48,0,1,1,1.26,6.21,4.48,4.48,0,0,1-1.26-6.21" transform="translate(-21.49 -22.87)"/><path class="cls-8" d="M524,171.67a4.48,4.48,0,1,1,.06,6.34,4.48,4.48,0,0,1-.06-6.34" transform="translate(-21.49 -22.87)"/><path class="cls-8" d="M516.7,161.47a4.48,4.48,0,1,1-1.27,6.21,4.48,4.48,0,0,1,1.27-6.21" transform="translate(-21.49 -22.87)"/><path class="cls-8" d="M512,151.07a4.48,4.48,0,1,1-2.29,5.91,4.48,4.48,0,0,1,2.29-5.91" transform="translate(-21.49 -22.87)"/><path class="cls-8" d="M509.16,138.83a4.48,4.48,0,1,1-3.31,5.4,4.48,4.48,0,0,1,3.31-5.4" transform="translate(-21.49 -22.87)"/><path class="cls-8" d="M591.64,189.81a4.48,4.48,0,1,1,5.88,2.39,4.48,4.48,0,0,1-5.88-2.39" transform="translate(-21.49 -22.87)"/><path class="cls-8" d="M579.36,192.44a4.48,4.48,0,1,1,5.35,3.4,4.47,4.47,0,0,1-5.35-3.4" transform="translate(-21.49 -22.87)"/><path class="cls-8" d="M567.14,56.45a3.82,3.82,0,1,1-3.82-3.82,3.82,3.82,0,0,1,3.82,3.82" transform="translate(-21.49 -22.87)"/><path class="cls-8" d="M584.22,57.51a3.82,3.82,0,1,1-2.83-4.6,3.8,3.8,0,0,1,2.83,4.6" transform="translate(-21.49 -22.87)"/><path class="cls-8" d="M597.48,61.22a3.82,3.82,0,1,1-1.92-5,3.81,3.81,0,0,1,1.92,5" transform="translate(-21.49 -22.87)"/><path class="cls-8" d="M609.26,67a3.82,3.82,0,1,1-1-5.31,3.82,3.82,0,0,1,1,5.31" transform="translate(-21.49 -22.87)"/><path class="cls-8" d="M602.55,196.65a3.82,3.82,0,1,1,5,2.1,3.82,3.82,0,0,1-5-2.1" transform="translate(-21.49 -22.87)"/><path class="cls-8" d="M589.23,201.43a3.82,3.82,0,1,1,4.48,3,3.82,3.82,0,0,1-4.48-3" transform="translate(-21.49 -22.87)"/><path class="cls-8" d="M575.54,203.56a3.82,3.82,0,1,1,3.84,3.8,3.83,3.83,0,0,1-3.84-3.8" transform="translate(-21.49 -22.87)"/><path class="cls-8" d="M559.15,202.71a3.82,3.82,0,1,1,2.9,4.55,3.83,3.83,0,0,1-2.9-4.55" transform="translate(-21.49 -22.87)"/><path class="cls-8" d="M547.14,199.68a3.82,3.82,0,1,1,2.1,5,3.82,3.82,0,0,1-2.1-5" transform="translate(-21.49 -22.87)"/><path class="cls-8" d="M531.41,192.07a3.82,3.82,0,1,1,.87,5.33,3.82,3.82,0,0,1-.87-5.33" transform="translate(-21.49 -22.87)"/><path class="cls-8" d="M521.31,184.3a3.82,3.82,0,1,1-.06,5.4,3.82,3.82,0,0,1,.06-5.4" transform="translate(-21.49 -22.87)"/><path class="cls-8" d="M511.76,173.65a3.82,3.82,0,1,1-1.1,5.29,3.82,3.82,0,0,1,1.1-5.29" transform="translate(-21.49 -22.87)"/><path class="cls-8" d="M505,162.44a3.82,3.82,0,1,1-2,5,3.81,3.81,0,0,1,2-5" transform="translate(-21.49 -22.87)"/><path class="cls-8" d="M500.42,150.72a3.82,3.82,0,1,1-2.85,4.59,3.82,3.82,0,0,1,2.85-4.59" transform="translate(-21.49 -22.87)"/><path class="cls-8" d="M497.61,134.95a3.82,3.82,0,1,1-3.77,3.87,3.81,3.81,0,0,1,3.77-3.87" transform="translate(-21.49 -22.87)"/><path class="cls-8" d="M498.19,119.55a3.82,3.82,0,1,1-4.49,3,3.82,3.82,0,0,1,4.49-3" transform="translate(-21.49 -22.87)"/><path class="cls-8" d="M501.73,105.27a3.82,3.82,0,1,1-5,2,3.82,3.82,0,0,1,5-2" transform="translate(-21.49 -22.87)"/><path class="cls-8" d="M508.13,91.8a3.82,3.82,0,1,1-5.31,1,3.82,3.82,0,0,1,5.31-1" transform="translate(-21.49 -22.87)"/><path class="cls-8" d="M517.4,79.59a3.82,3.82,0,1,1-5.39-.12,3.81,3.81,0,0,1,5.39.12" transform="translate(-21.49 -22.87)"/><path class="cls-8" d="M527.53,70.62a3.82,3.82,0,1,1-5.29-1.11,3.82,3.82,0,0,1,5.29,1.11" transform="translate(-21.49 -22.87)"/><path class="cls-8" d="M539.07,63.68a3.82,3.82,0,1,1-5-2,3.82,3.82,0,0,1,5,2" transform="translate(-21.49 -22.87)"/><path class="cls-8" d="M552.71,58.67a3.82,3.82,0,1,1-4.5-3,3.81,3.81,0,0,1,4.5,3" transform="translate(-21.49 -22.87)"/><path class="cls-8" d="M557.84,45.43a3.63,3.63,0,1,1-4.27-2.84,3.63,3.63,0,0,1,4.27,2.84" transform="translate(-21.49 -22.87)"/><path class="cls-8" d="M575.34,44.43a3.63,3.63,0,1,1-3.61-3.65,3.63,3.63,0,0,1,3.61,3.65" transform="translate(-21.49 -22.87)"/><path class="cls-8" d="M595.19,47.69a3.63,3.63,0,1,1-2.65-4.39,3.63,3.63,0,0,1,2.65,4.39" transform="translate(-21.49 -22.87)"/><path class="cls-8" d="M608.75,52.88a3.63,3.63,0,1,1-1.88-4.78,3.63,3.63,0,0,1,1.88,4.78" transform="translate(-21.49 -22.87)"/><path class="cls-8" d="M600.21,210.72a3.63,3.63,0,1,1,4.72,2,3.63,3.63,0,0,1-4.72-2" transform="translate(-21.49 -22.87)"/><path class="cls-8" d="M584.62,214.67a3.63,3.63,0,1,1,4.26,2.86,3.63,3.63,0,0,1-4.26-2.86" transform="translate(-21.49 -22.87)"/><path class="cls-8" d="M566.35,215.54a3.63,3.63,0,1,1,3.55,3.7,3.63,3.63,0,0,1-3.55-3.7" transform="translate(-21.49 -22.87)"/><path class="cls-8" d="M550,213a3.63,3.63,0,1,1,2.78,4.32A3.64,3.64,0,0,1,550,213" transform="translate(-21.49 -22.87)"/><path class="cls-8" d="M533.87,207a3.63,3.63,0,1,1,1.86,4.78,3.64,3.64,0,0,1-1.86-4.78" transform="translate(-21.49 -22.87)"/><path class="cls-8" d="M517.54,196.59a3.62,3.62,0,1,1,.73,5.08,3.63,3.63,0,0,1-.73-5.08" transform="translate(-21.49 -22.87)"/><path class="cls-8" d="M507.72,187.28a3.63,3.63,0,1,1-.07,5.12,3.65,3.65,0,0,1,.07-5.12" transform="translate(-21.49 -22.87)"/><path class="cls-8" d="M498,174.12a3.63,3.63,0,1,1-1.05,5,3.64,3.64,0,0,1,1.05-5" transform="translate(-21.49 -22.87)"/><path class="cls-8" d="M491.76,161.47a3.63,3.63,0,1,1-1.86,4.78,3.63,3.63,0,0,1,1.86-4.78" transform="translate(-21.49 -22.87)"/><path class="cls-8" d="M487.11,145.09a3.63,3.63,0,1,1-2.77,4.32,3.64,3.64,0,0,1,2.77-4.32" transform="translate(-21.49 -22.87)"/><path class="cls-8" d="M485.82,127.32a3.63,3.63,0,1,1-3.59,3.65,3.64,3.64,0,0,1,3.59-3.65" transform="translate(-21.49 -22.87)"/><path class="cls-8" d="M488.15,110a3.63,3.63,0,1,1-4.27,2.84,3.64,3.64,0,0,1,4.27-2.84" transform="translate(-21.49 -22.87)"/><path class="cls-8" d="M493.55,94.37a3.63,3.63,0,1,1-4.74,2,3.63,3.63,0,0,1,4.74-2" transform="translate(-21.49 -22.87)"/><path class="cls-8" d="M502,79.91a3.63,3.63,0,1,1-5,1,3.64,3.64,0,0,1,5-1" transform="translate(-21.49 -22.87)"/><path class="cls-8" d="M514.68,65.84a3.63,3.63,0,1,1-5.12-.11,3.63,3.63,0,0,1,5.12.11" transform="translate(-21.49 -22.87)"/><path class="cls-8" d="M526.91,56.83a3.63,3.63,0,1,1-5-1,3.64,3.64,0,0,1,5,1" transform="translate(-21.49 -22.87)"/><path class="cls-8" d="M541.74,49.66a3.63,3.63,0,1,1-4.74-2,3.63,3.63,0,0,1,4.74,2" transform="translate(-21.49 -22.87)"/><path class="cls-8" d="M564.15,35a2.33,2.33,0,1,1-2.33-2.32A2.33,2.33,0,0,1,564.15,35" transform="translate(-21.49 -22.87)"/><path class="cls-8" d="M573,24.73a1.86,1.86,0,1,1-1.86-1.86A1.86,1.86,0,0,1,573,24.73" transform="translate(-21.49 -22.87)"/><path class="cls-8" d="M597.84,28.07a1.86,1.86,0,1,1-1.37-2.25,1.86,1.86,0,0,1,1.37,2.25" transform="translate(-21.49 -22.87)"/><path class="cls-8" d="M616.94,35a1.86,1.86,0,1,1-.92-2.47,1.86,1.86,0,0,1,.92,2.47" transform="translate(-21.49 -22.87)"/><path class="cls-8" d="M608.29,228.66a1.86,1.86,0,1,1,2.4,1.05,1.86,1.86,0,0,1-2.4-1.05" transform="translate(-21.49 -22.87)"/><path class="cls-8" d="M589.06,233.83a1.86,1.86,0,1,1,2.16,1.5,1.85,1.85,0,0,1-2.16-1.5" transform="translate(-21.49 -22.87)"/><path class="cls-8" d="M567.19,235.23a1.86,1.86,0,1,1,1.81,1.91,1.86,1.86,0,0,1-1.81-1.91" transform="translate(-21.49 -22.87)"/><path class="cls-8" d="M545.18,232a1.86,1.86,0,1,1,1.37,2.25,1.86,1.86,0,0,1-1.37-2.25" transform="translate(-21.49 -22.87)"/><path class="cls-8" d="M525.73,224.86a1.86,1.86,0,1,1,.9,2.47,1.86,1.86,0,0,1-.9-2.47" transform="translate(-21.49 -22.87)"/><path class="cls-8" d="M507,213.25a1.86,1.86,0,1,1,.37,2.6,1.85,1.85,0,0,1-.37-2.6" transform="translate(-21.49 -22.87)"/><path class="cls-8" d="M493.28,200.55a1.86,1.86,0,1,1-.1,2.63,1.86,1.86,0,0,1,.1-2.63" transform="translate(-21.49 -22.87)"/><path class="cls-8" d="M482.3,186a1.86,1.86,0,1,1-.55,2.58,1.85,1.85,0,0,1,.55-2.58" transform="translate(-21.49 -22.87)"/><path class="cls-8" d="M474.7,171.56a1.86,1.86,0,1,1-.94,2.46,1.85,1.85,0,0,1,.94-2.46" transform="translate(-21.49 -22.87)"/><path class="cls-8" d="M468.64,152.74a1.86,1.86,0,1,1-1.38,2.24,1.86,1.86,0,0,1,1.38-2.24" transform="translate(-21.49 -22.87)"/><path class="cls-8" d="M466.16,129.52a1.86,1.86,0,1,1-1.84,1.88,1.85,1.85,0,0,1,1.84-1.87" transform="translate(-21.49 -22.87)"/><path class="cls-8" d="M468.09,109.92a1.86,1.86,0,1,1-2.15,1.5,1.85,1.85,0,0,1,2.15-1.5" transform="translate(-21.49 -22.87)"/><path class="cls-8" d="M474.52,88.9a1.86,1.86,0,1,1-2.42,1,1.85,1.85,0,0,1,2.42-1" transform="translate(-21.49 -22.87)"/><path class="cls-8" d="M485,70a1.86,1.86,0,1,1-2.58.5A1.85,1.85,0,0,1,485,70" transform="translate(-21.49 -22.87)"/><path class="cls-8" d="M499.08,53.53a1.85,1.85,0,1,1-2.62,0,1.85,1.85,0,0,1,2.62,0" transform="translate(-21.49 -22.87)"/><path class="cls-8" d="M515.32,40.93a1.86,1.86,0,1,1-2.57-.55,1.86,1.86,0,0,1,2.57.55" transform="translate(-21.49 -22.87)"/><path class="cls-8" d="M534.41,31.45A1.85,1.85,0,1,1,532,30.39a1.85,1.85,0,0,1,2.41,1.06" transform="translate(-21.49 -22.87)"/><path class="cls-8" d="M552,26.53a1.86,1.86,0,1,1-2.19-1.45A1.86,1.86,0,0,1,552,26.53" transform="translate(-21.49 -22.87)"/><path class="cls-8" d="M585.56,35.8A2.32,2.32,0,1,1,583.82,33a2.33,2.33,0,0,1,1.75,2.79" transform="translate(-21.49 -22.87)"/><path class="cls-8" d="M604.72,40.74a2.32,2.32,0,1,1-1.13-3.09,2.32,2.32,0,0,1,1.13,3.09" transform="translate(-21.49 -22.87)"/><path class="cls-8" d="M619.6,47.81a2.33,2.33,0,1,1-.59-3.23,2.33,2.33,0,0,1,.59,3.23" transform="translate(-21.49 -22.87)"/><path class="cls-8" d="M614.3,215.1a2.32,2.32,0,1,1,3,1.27,2.31,2.31,0,0,1-3-1.27" transform="translate(-21.49 -22.87)"/><path class="cls-8" d="M597.09,221.77a2.32,2.32,0,1,1,2.73,1.83,2.32,2.32,0,0,1-2.73-1.83" transform="translate(-21.49 -22.87)"/><path class="cls-8" d="M577.35,225.1a2.32,2.32,0,1,1,2.29,2.36,2.32,2.32,0,0,1-2.29-2.36" transform="translate(-21.49 -22.87)"/><path class="cls-8" d="M556.55,224.11a2.32,2.32,0,1,1,1.72,2.8,2.33,2.33,0,0,1-1.72-2.8" transform="translate(-21.49 -22.87)"/><path class="cls-8" d="M539.86,219.9a2.32,2.32,0,1,1,4.26,1.87,2.32,2.32,0,0,1-4.26-1.87" transform="translate(-21.49 -22.87)"/><path class="cls-8" d="M521.07,210.87a2.32,2.32,0,1,1,.5,3.25,2.33,2.33,0,0,1-.5-3.25" transform="translate(-21.49 -22.87)"/><path class="cls-8" d="M506.59,199.79a2.33,2.33,0,1,1-.13,3.29,2.33,2.33,0,0,1,.13-3.29" transform="translate(-21.49 -22.87)"/><path class="cls-8" d="M495.51,187.53a2.32,2.32,0,1,1-.7,3.22,2.33,2.33,0,0,1,.7-3.22" transform="translate(-21.49 -22.87)"/><path class="cls-8" d="M486.9,173.93a2.32,2.32,0,1,1-1.23,3.05,2.32,2.32,0,0,1,1.23-3.05" transform="translate(-21.49 -22.87)"/><path class="cls-8" d="M480.32,157.8a2.32,2.32,0,1,1-1.76,2.77,2.33,2.33,0,0,1,1.76-2.77" transform="translate(-21.49 -22.87)"/><path class="cls-8" d="M476.47,137.37a2.32,2.32,0,1,1-2.32,2.33,2.32,2.32,0,0,1,2.32-2.33" transform="translate(-21.49 -22.87)"/><path class="cls-8" d="M476.79,119.34a2.32,2.32,0,1,1-2.72,1.85,2.32,2.32,0,0,1,2.72-1.85" transform="translate(-21.49 -22.87)"/><path class="cls-8" d="M480.81,100.7a2.32,2.32,0,1,1-3,1.27,2.32,2.32,0,0,1,3-1.27" transform="translate(-21.49 -22.87)"/><path class="cls-8" d="M488.43,83.28a2.32,2.32,0,1,1-3.23.64,2.33,2.33,0,0,1,3.23-.64" transform="translate(-21.49 -22.87)"/><path class="cls-8" d="M500.29,66.67a2.32,2.32,0,1,1-3.29-.06,2.32,2.32,0,0,1,3.29.06" transform="translate(-21.49 -22.87)"/><path class="cls-8" d="M514.17,53.9a2.32,2.32,0,1,1-3.21-.71,2.32,2.32,0,0,1,3.21.71" transform="translate(-21.49 -22.87)"/><path class="cls-8" d="M529.31,44.57a2.32,2.32,0,1,1-3-1.29,2.31,2.31,0,0,1,3,1.29" transform="translate(-21.49 -22.87)"/><path class="cls-8" d="M546.81,38a2.32,2.32,0,1,1-2.71-1.86A2.32,2.32,0,0,1,546.81,38" transform="translate(-21.49 -22.87)"/><path class="cls-9" d="M582.71,123.31c-1-7.39-5.59-9.95-10.61-9.95-6.06,0-10.23,3.51-11.55,9.95Zm12.88,19.13c-5.88,7.86-13.45,12-23.11,12-12.41,0-24.35-7.86-24.35-25.29,0-15.91,10.23-24.91,23.59-24.91,12.5,0,17.71,7.48,18.66,8.9,3.88,5.49,4.74,13.73,4.83,18.47h-35c1.33,7.48,6,11.74,13.45,11.74a13.83,13.83,0,0,0,12.31-6.53Z" transform="translate(-21.49 -22.87)"/><path class="cls-9" d="M615.2,105.69v6.72c1.42-2.46,4.55-8.05,15.16-7.77V116.3c-2.46.1-6.72.19-10.23,2.84-4.83,3.69-4.93,8.52-4.93,16.39v17.52h-11V105.69Z" transform="translate(-21.49 -22.87)"/><path class="cls-9" d="M666.36,122.46a11,11,0,0,0-10.7-8.05c-6.54,0-11.75,5.21-11.75,14.68,0,8.52,4.46,14.78,11.94,14.78,7.2,0,9.95-5.49,11.37-9.29L677,139.7a22.39,22.39,0,0,1-21.31,14.78c-13.17,0-23.49-10.14-23.49-25.1,0-14.49,10.42-25.1,23.87-25.1,11.93,0,18,8,20.46,13.45Z" transform="translate(-21.49 -22.87)"/></g><polygon class="cls-9" points="401.14 237.74 401.14 241.74 409.33 241.74 409.33 244.49 401.14 244.49 401.14 249.04 410.7 249.04 410.7 251.91 398 251.91 398 234.9 410.1 234.9 410.1 237.74 401.14 237.74"/><g class="cls-4"><path class="cls-9" d="M445.14,262.73v12h-2.89v-1.23a5.35,5.35,0,0,1-3.91,1.52,4,4,0,0,1-3.35-1.4c-.82-1-.82-2.17-.82-4v-7h2.92v6.92a4.64,4.64,0,0,0,.09,1.21,2.13,2.13,0,0,0,2.24,1.51,2.65,2.65,0,0,0,2.34-1.28c.43-.79.46-1.56.48-3.25v-5.11Z" transform="translate(-21.49 -22.87)"/><path class="cls-9" d="M451.06,262.73v1.71c.37-.63,1.16-2,3.86-2v3a4.42,4.42,0,0,0-2.6.73c-1.23.94-1.26,2.17-1.26,4.17v4.45h-2.79v-12Z" transform="translate(-21.49 -22.87)"/><path class="cls-9" d="M461.74,265c-1.81,0-3.11,1.45-3.11,3.66,0,2.48,1.52,3.86,3.25,3.86,2.1,0,3.16-1.83,3.09-3.83s-1.21-3.69-3.23-3.69m.15,10.16a6.09,6.09,0,0,1-6.26-6.43,6.2,6.2,0,1,1,12.39,0c0,3.75-2.49,6.43-6.12,6.43" transform="translate(-21.49 -22.87)"/><path class="cls-9" d="M476.18,272.42c1.4,0,2.91-1,2.91-3.69,0-3-2.1-3.59-3-3.59-1.33,0-2.84,1-2.89,3.54s1.32,3.73,2.94,3.73m-5.78-9.69h2.86v1.11a4.28,4.28,0,0,1,3.31-1.47c3.54,0,5.47,3.18,5.47,6.5,0,3.59-2.24,6.26-5.47,6.26a4.72,4.72,0,0,1-3.31-1.35v4.91H470.4Z" transform="translate(-21.49 -22.87)"/><path class="cls-9" d="M492.5,267.21a2.58,2.58,0,0,0-2.7-2.53,2.85,2.85,0,0,0-2.94,2.53Zm3.28,4.87a7,7,0,0,1-5.88,3.06c-3.15,0-6.19-2-6.19-6.43,0-4.05,2.6-6.34,6-6.34a5.44,5.44,0,0,1,4.75,2.26,9,9,0,0,1,1.23,4.7h-8.92a3.26,3.26,0,0,0,3.42,3,3.52,3.52,0,0,0,3.14-1.66Z" transform="translate(-21.49 -22.87)"/><path class="cls-9" d="M505.06,268.78a8.38,8.38,0,0,1-2.53.72c-1,.14-2.41.38-2.41,1.66,0,.94.79,1.42,2,1.42a3,3,0,0,0,2.82-1.4,2.42,2.42,0,0,0,.17-1.08Zm-7.45-2.51a3.92,3.92,0,0,1,.48-1.81c1.16-2.09,4-2.09,4.8-2.09a7.29,7.29,0,0,1,3.62.77c1.42.87,1.45,2,1.45,3.31v6.38a2.52,2.52,0,0,0,.53,2h-3.42c0-.29-.07-.77-.07-.94a5.67,5.67,0,0,1-3.57,1.23c-2.73,0-4.36-1.68-4.36-3.76a3.67,3.67,0,0,1,.38-1.64c.87-1.73,2.73-2.12,3.88-2.34a27.66,27.66,0,0,0,3.74-.89c0-.6,0-1.84-2.05-1.84a2.56,2.56,0,0,0-2.14.77,1.44,1.44,0,0,0-.29,1.06Z" transform="translate(-21.49 -22.87)"/><path class="cls-9" d="M511,262.73h2.92v1.42a3.3,3.3,0,0,1,.94-.94,5,5,0,0,1,2.77-.84,4,4,0,0,1,3.16,1.44c.74,1,.74,2.32.74,3.88v7.08h-2.87v-6.14a8.56,8.56,0,0,0-.1-1.83,2,2,0,0,0-2-1.61,2.54,2.54,0,0,0-2.22,1.35,6.94,6.94,0,0,0-.46,3v5.22H511Z" transform="translate(-21.49 -22.87)"/><path class="cls-9" d="M534.68,260.51v5.33h1.11c1.09,0,1.49,0,2.09,0s3-.15,3-2.63a2.44,2.44,0,0,0-1.35-2.29c-.67-.33-1.5-.36-3.37-.36Zm-3.16-2.75h5.42c2.26,0,3.78,0,5.28,1.23a5.18,5.18,0,0,1,1.88,4.19,4.66,4.66,0,0,1-3.35,4.68l3.78,6.91h-3.64l-3.37-6.31h-2.84v6.31h-3.16Z" transform="translate(-21.49 -22.87)"/><path class="cls-9" d="M554.75,267.21a2.58,2.58,0,0,0-2.7-2.53,2.85,2.85,0,0,0-2.94,2.53Zm3.28,4.87a7,7,0,0,1-5.88,3.06c-3.16,0-6.2-2-6.2-6.43,0-4.05,2.61-6.34,6-6.34a5.44,5.44,0,0,1,4.75,2.26,9,9,0,0,1,1.23,4.7H549a3.25,3.25,0,0,0,3.42,3,3.53,3.53,0,0,0,3.14-1.66Z" transform="translate(-21.49 -22.87)"/><path class="cls-9" d="M561.36,271.21a4.21,4.21,0,0,0,3.47,1.54c1.66,0,2.39-.82,2.39-1.42,0-.77-.87-1-1.25-1s-2.39-.46-2.82-.58c-2.87-.68-3.4-2.33-3.4-3.42,0-2,1.86-3.92,5.16-3.92a6.82,6.82,0,0,1,4,1.16,5.36,5.36,0,0,1,1.23,1.08l-2,1.91a3.37,3.37,0,0,0-3.28-1.83c-1.37,0-2,.6-2,1.23,0,.87.9,1.11,2.43,1.37,2.51.46,3.2.58,4,1.18a3.27,3.27,0,0,1,1.23,2.56c0,1.88-1.69,4.11-5.43,4.11a8.24,8.24,0,0,1-5.78-2.14Z" transform="translate(-21.49 -22.87)"/><path class="cls-9" d="M580.85,267.21a2.58,2.58,0,0,0-2.7-2.53,2.85,2.85,0,0,0-2.94,2.53Zm3.28,4.87a7,7,0,0,1-5.88,3.06c-3.16,0-6.19-2-6.19-6.43,0-4.05,2.6-6.34,6-6.34a5.43,5.43,0,0,1,4.75,2.26,9,9,0,0,1,1.23,4.7h-8.92a3.26,3.26,0,0,0,3.42,3,3.52,3.52,0,0,0,3.13-1.66Z" transform="translate(-21.49 -22.87)"/><path class="cls-9" d="M593.41,268.78a8.4,8.4,0,0,1-2.53.72c-1,.14-2.41.38-2.41,1.66,0,.94.8,1.42,2,1.42a3,3,0,0,0,2.82-1.4,2.46,2.46,0,0,0,.17-1.08ZM586,266.27a3.92,3.92,0,0,1,.48-1.81c1.16-2.09,4-2.09,4.8-2.09a7.28,7.28,0,0,1,3.61.77c1.42.87,1.45,2,1.45,3.31v6.38a2.51,2.51,0,0,0,.53,2h-3.42c0-.29-.07-.77-.07-.94a5.66,5.66,0,0,1-3.56,1.23c-2.72,0-4.36-1.68-4.36-3.76a3.66,3.66,0,0,1,.39-1.64c.87-1.73,2.73-2.12,3.88-2.34a27.55,27.55,0,0,0,3.73-.89c0-.6,0-1.84-2-1.84a2.56,2.56,0,0,0-2.15.77,1.43,1.43,0,0,0-.29,1.06Z" transform="translate(-21.49 -22.87)"/><path class="cls-9" d="M602.18,262.73v1.71c.36-.63,1.16-2,3.86-2v3a4.44,4.44,0,0,0-2.6.73c-1.23.94-1.25,2.17-1.25,4.17v4.45h-2.79v-12Z" transform="translate(-21.49 -22.87)"/><path class="cls-9" d="M615.18,267a2.81,2.81,0,0,0-2.73-2c-1.66,0-3,1.32-3,3.73,0,2.17,1.13,3.76,3,3.76a3.05,3.05,0,0,0,2.89-2.36l2.48,1.3a5.69,5.69,0,0,1-5.42,3.76c-3.35,0-6-2.58-6-6.38a6.09,6.09,0,0,1,6.07-6.39,5.56,5.56,0,0,1,5.2,3.42Z" transform="translate(-21.49 -22.87)"/><path class="cls-9" d="M621.86,257.76V264a5.27,5.27,0,0,1,3.83-1.59,4.41,4.41,0,0,1,3.3,1.3c1,1.06,1,2.29,1,3.66v7.44h-2.84v-6.62a5.07,5.07,0,0,0-.19-1.71,2,2,0,0,0-2.1-1.33,3.05,3.05,0,0,0-2.92,2.19,7.62,7.62,0,0,0-.09,1.93v5.54H619v-17Z" transform="translate(-21.49 -22.87)"/><path class="cls-9" d="M654.25,270a9,9,0,0,1-1.47,2.56,7.52,7.52,0,0,1-5.88,2.62c-4.51,0-8-3.3-8-9s3.74-8.89,8.07-8.89a6.81,6.81,0,0,1,6.94,5.25l-3.18.84a4.29,4.29,0,0,0-.62-1.69,3.6,3.6,0,0,0-3.06-1.49c-2.77,0-4.7,2.29-4.7,5.92,0,3.88,2.05,6,4.73,6a3.9,3.9,0,0,0,3.25-1.66,5.49,5.49,0,0,0,.89-1.76Z" transform="translate(-21.49 -22.87)"/><path class="cls-9" d="M661.6,265c-1.81,0-3.11,1.45-3.11,3.66,0,2.48,1.52,3.86,3.26,3.86,2.1,0,3.16-1.83,3.09-3.83S663.62,265,661.6,265m.14,10.16a6.09,6.09,0,0,1-6.27-6.43,6.2,6.2,0,1,1,12.39,0c0,3.75-2.48,6.43-6.12,6.43" transform="translate(-21.49 -22.87)"/><path class="cls-9" d="M681.15,262.73v12h-2.89v-1.23a5.36,5.36,0,0,1-3.91,1.52,4,4,0,0,1-3.35-1.4c-.82-1-.82-2.17-.82-4v-7h2.92v6.92a4.54,4.54,0,0,0,.09,1.21,2.13,2.13,0,0,0,2.25,1.51,2.65,2.65,0,0,0,2.33-1.28c.43-.79.46-1.56.49-3.25v-5.11Z" transform="translate(-21.49 -22.87)"/><path class="cls-9" d="M684.26,262.73h2.92v1.42a3.38,3.38,0,0,1,.94-.94,5,5,0,0,1,2.77-.84,4,4,0,0,1,3.16,1.44c.74,1,.74,2.32.74,3.88v7.08h-2.87v-6.14a8.22,8.22,0,0,0-.1-1.83,2,2,0,0,0-2-1.61,2.54,2.54,0,0,0-2.22,1.35,6.91,6.91,0,0,0-.46,3v5.22h-2.92Z" transform="translate(-21.49 -22.87)"/><path class="cls-9" d="M705.56,267a2.81,2.81,0,0,0-2.73-2c-1.66,0-3,1.32-3,3.73,0,2.17,1.13,3.76,3,3.76a3.05,3.05,0,0,0,2.89-2.36l2.48,1.3a5.69,5.69,0,0,1-5.42,3.76c-3.35,0-6-2.58-6-6.38a6.09,6.09,0,0,1,6.07-6.39,5.55,5.55,0,0,1,5.2,3.42Z" transform="translate(-21.49 -22.87)"/></g><path class="cls-9" d="M709.9,262.73h2.87v12H709.9Zm2.87-1.87H709.9v-2.92h2.87Z" transform="translate(-21.49 -22.87)"/><rect class="cls-9" x="694.44" y="234.89" width="2.92" height="17.01"/><polygon class="cls-9" points="398.13 285.68 398.13 273.9 405.43 273.9 405.43 275.03 399.38 275.03 399.38 279.18 404.54 279.18 404.54 280.3 399.38 280.3 399.38 284.55 405.43 284.55 405.43 285.68 398.13 285.68"/><g class="cls-4"><path class="cls-9" d="M431.87,308.64a4.48,4.48,0,0,1-3.34-1.17l.79-.79a3.33,3.33,0,0,0,2.53.94c1.34,0,2.16-.48,2.16-1.44,0-.71-.41-1.11-1.35-1.19l-1.34-.12c-1.59-.13-2.43-.84-2.43-2.18,0-1.49,1.26-2.38,3-2.38a4.61,4.61,0,0,1,2.93.88L434,302a3.47,3.47,0,0,0-2.17-.64c-1.19,0-1.82.51-1.82,1.34s.4,1.11,1.42,1.19l1.31.12c1.42.13,2.4.68,2.4,2.2s-1.34,2.48-3.3,2.48" transform="translate(-21.49 -22.87)"/><path class="cls-9" d="M439.62,308.54a2,2,0,0,1-2.08-2.18v-5h-1v-.91h1v-2.54h1.19v2.54h1.74v.91h-1.74v5c0,.75.35,1.19,1.11,1.19h.63v1Z" transform="translate(-21.49 -22.87)"/><path class="cls-9" d="M447.31,304.79H445c-1.22,0-1.82.5-1.82,1.44s.58,1.39,1.87,1.39a2.38,2.38,0,0,0,1.82-.55,1.88,1.88,0,0,0,.41-1.41Zm0,3.75v-.78a2.86,2.86,0,0,1-2.35.88,2.89,2.89,0,0,1-2.3-.74,2.34,2.34,0,0,1-.61-1.65c0-1.42,1-2.35,2.81-2.35h2.45v-.78c0-1.19-.6-1.78-2.08-1.78a2.14,2.14,0,0,0-2.05.93l-.81-.74a3.16,3.16,0,0,1,2.88-1.21c2.18,0,3.26.94,3.26,2.71v5.52Z" transform="translate(-21.49 -22.87)"/><path class="cls-9" d="M454.62,301.37c-1.77,0-2.05,1.52-2.05,3.11s.28,3.11,2.05,3.11,2-1.52,2-3.11-.26-3.11-2-3.11m2.23,6.56a2.84,2.84,0,0,1-2,.71,2.61,2.61,0,0,1-2.3-1.08v1h-1.19V296.77h1.19v4.58a2.62,2.62,0,0,1,2.3-1,2.84,2.84,0,0,1,2,.71,6.52,6.52,0,0,1,0,6.91" transform="translate(-21.49 -22.87)"/><path class="cls-9" d="M462.42,308.54a1.94,1.94,0,0,1-2.07-2.16v-9.61h1.19v9.55c0,.79.26,1.19,1.09,1.19h.65v1Z" transform="translate(-21.49 -22.87)"/></g><path class="cls-9" d="M465.3,300.41h1.19v8.13H465.3Zm-.07-3.65h1.34v1.34h-1.34Z" transform="translate(-21.49 -22.87)"/><g class="cls-4"><path class="cls-9" d="M472,308.64a4.48,4.48,0,0,1-3.34-1.17l.79-.79a3.33,3.33,0,0,0,2.53.94c1.34,0,2.16-.48,2.16-1.44,0-.71-.41-1.11-1.35-1.19l-1.34-.12c-1.59-.13-2.43-.84-2.43-2.18,0-1.49,1.26-2.38,3-2.38a4.61,4.61,0,0,1,2.93.88l-.78.78a3.47,3.47,0,0,0-2.17-.64c-1.19,0-1.82.51-1.82,1.34s.4,1.11,1.42,1.19l1.31.12c1.42.13,2.4.68,2.4,2.2s-1.34,2.48-3.3,2.48" transform="translate(-21.49 -22.87)"/><path class="cls-9" d="M482.88,308.54v-5a1.88,1.88,0,0,0-2-2.15,1.92,1.92,0,0,0-2,2.15v5h-1.19V296.77h1.19v4.53a2.9,2.9,0,0,1,2.28-1,2.75,2.75,0,0,1,2.93,3v5.22Z" transform="translate(-21.49 -22.87)"/><path class="cls-9" d="M491.75,302.54a2.09,2.09,0,0,0-3.8,0,3.46,3.46,0,0,0-.25,1.36H492a3.4,3.4,0,0,0-.25-1.36m-4,2.25c0,1.79.84,2.81,2.4,2.81a2.67,2.67,0,0,0,2.13-.93l.81.71a3.72,3.72,0,0,1-3,1.26c-2.15,0-3.55-1.29-3.55-4.17,0-2.63,1.27-4.17,3.34-4.17s3.34,1.52,3.34,3.94v.54Z" transform="translate(-21.49 -22.87)"/><path class="cls-9" d="M498.52,301.37c-1.77,0-2,1.52-2,3.11s.28,3.11,2,3.11,2-1.52,2-3.11-.26-3.11-2-3.11m2.05,7.18v-1a2.63,2.63,0,0,1-2.31,1.08,2.84,2.84,0,0,1-2-.71,6.51,6.51,0,0,1,0-6.91,2.84,2.84,0,0,1,2-.71,2.61,2.61,0,0,1,2.3,1v-4.58h1.19v11.77Z" transform="translate(-21.49 -22.87)"/><path class="cls-9" d="M512.07,301.37c-1.77,0-2.05,1.52-2.05,3.11s.28,3.11,2.05,3.11,2-1.52,2-3.11-.26-3.11-2-3.11m2.23,6.56a2.84,2.84,0,0,1-2,.71,2.61,2.61,0,0,1-2.3-1.08v1h-1.19V296.77H510v4.58a2.62,2.62,0,0,1,2.3-1,2.84,2.84,0,0,1,2,.71,6.51,6.51,0,0,1,0,6.91" transform="translate(-21.49 -22.87)"/><path class="cls-9" d="M519.85,310.51a2.38,2.38,0,0,1-.58,1,2.23,2.23,0,0,1-1.59.56h-.51V311h.36c.83,0,1.07-.27,1.34-1l.58-1.59-2.93-8h1.29l2.23,6.53,2.21-6.53h1.29Z" transform="translate(-21.49 -22.87)"/><path class="cls-9" d="M531.61,308.54a2,2,0,0,1-2.08-2.18v-5h-1v-.91h1v-2.54h1.19v2.54h1.73v.91h-1.73v5c0,.75.35,1.19,1.11,1.19h.63v1Z" transform="translate(-21.49 -22.87)"/><path class="cls-9" d="M540,308.54v-5a1.88,1.88,0,0,0-2-2.15,1.92,1.92,0,0,0-2,2.15v5h-1.19V296.77H536v4.53a2.9,2.9,0,0,1,2.28-1,2.75,2.75,0,0,1,2.93,3v5.22Z" transform="translate(-21.49 -22.87)"/><path class="cls-9" d="M548.9,302.54a2.09,2.09,0,0,0-3.8,0,3.44,3.44,0,0,0-.25,1.36h4.3a3.4,3.4,0,0,0-.25-1.36m-4,2.25c0,1.79.84,2.81,2.4,2.81a2.67,2.67,0,0,0,2.13-.93l.81.71a3.73,3.73,0,0,1-3,1.26c-2.15,0-3.55-1.29-3.55-4.17,0-2.63,1.27-4.17,3.34-4.17s3.34,1.52,3.34,3.94v.54Z" transform="translate(-21.49 -22.87)"/></g><polygon class="cls-9" points="535.7 285.68 535.7 273.9 543.01 273.9 543.01 275.03 536.96 275.03 536.96 279.18 542.12 279.18 542.12 280.3 536.96 280.3 536.96 284.55 543.01 284.55 543.01 285.68 535.7 285.68"/><g class="cls-4"><path class="cls-9" d="M572,308.54v-.91a3,3,0,0,1-2.3,1,2.89,2.89,0,0,1-2.1-.76,3,3,0,0,1-.83-2.28v-5.19H568v5c0,1.44.76,2.17,2,2.17a1.93,1.93,0,0,0,2-2.17v-5h1.19v8.13Z" transform="translate(-21.49 -22.87)"/><path class="cls-9" d="M580.72,302a1.7,1.7,0,0,0-1.41-.6,2,2,0,0,0-2,2.18v5h-1.19v-8.13h1.19v1a2.74,2.74,0,0,1,2.28-1.09,2.5,2.5,0,0,1,2,.76Z" transform="translate(-21.49 -22.87)"/><path class="cls-9" d="M586.94,302a2.09,2.09,0,0,0-1.49-.6,2,2,0,0,0-1.47.6,5.1,5.1,0,0,0,0,5,2,2,0,0,0,1.47.6,2.09,2.09,0,0,0,1.49-.6,5.21,5.21,0,0,0,0-5m.84,5.75a3.39,3.39,0,0,1-4.66,0,5.79,5.79,0,0,1,0-6.48,3.39,3.39,0,0,1,4.66,0,5.79,5.79,0,0,1,0,6.48" transform="translate(-21.49 -22.87)"/><path class="cls-9" d="M594.56,301.37c-1.77,0-2.05,1.52-2.05,3.11s.28,3.11,2.05,3.11,2-1.52,2-3.11-.26-3.11-2-3.11m2.23,6.56a2.83,2.83,0,0,1-2,.71,2.64,2.64,0,0,1-2.3-1.06v4.59h-1.19V300.41h1.19v1a2.59,2.59,0,0,1,2.3-1.06,2.83,2.83,0,0,1,2,.71,6.51,6.51,0,0,1,0,6.91" transform="translate(-21.49 -22.87)"/><path class="cls-9" d="M605.12,302.54a2.09,2.09,0,0,0-3.8,0,3.38,3.38,0,0,0-.25,1.36h4.3a3.42,3.42,0,0,0-.25-1.36m-4,2.25c0,1.79.84,2.81,2.4,2.81a2.67,2.67,0,0,0,2.13-.93l.81.71a3.72,3.72,0,0,1-3,1.26c-2.15,0-3.55-1.29-3.55-4.17,0-2.63,1.27-4.17,3.34-4.17s3.34,1.52,3.34,3.94v.54Z" transform="translate(-21.49 -22.87)"/><path class="cls-9" d="M613.69,304.79h-2.28c-1.22,0-1.82.5-1.82,1.44s.58,1.39,1.87,1.39a2.38,2.38,0,0,0,1.82-.55,1.88,1.88,0,0,0,.41-1.41Zm0,3.75v-.78a2.86,2.86,0,0,1-2.35.88,2.9,2.9,0,0,1-2.3-.74,2.34,2.34,0,0,1-.61-1.65c0-1.42,1-2.35,2.81-2.35h2.45v-.78c0-1.19-.6-1.78-2.08-1.78a2.14,2.14,0,0,0-2.05.93l-.81-.74a3.15,3.15,0,0,1,2.88-1.21c2.18,0,3.26.94,3.26,2.71v5.52Z" transform="translate(-21.49 -22.87)"/><path class="cls-9" d="M623,308.54v-5a1.89,1.89,0,0,0-2-2.17,1.91,1.91,0,0,0-2,2.17v5h-1.19v-8.13H619v.89a2.93,2.93,0,0,1,2.28-1,2.85,2.85,0,0,1,2.08.76,3,3,0,0,1,.84,2.26v5.21Z" transform="translate(-21.49 -22.87)"/><path class="cls-9" d="M635.05,308.64a4.2,4.2,0,0,1-3-1.22c-1.11-1.11-1.11-2.26-1.11-4.76s0-3.65,1.11-4.76a4.19,4.19,0,0,1,3-1.22,4,4,0,0,1,4.08,3.5h-1.29a2.78,2.78,0,0,0-2.79-2.38,2.83,2.83,0,0,0-2,.83c-.75.76-.83,1.57-.83,4s.08,3.27.83,4a2.88,2.88,0,0,0,4.86-1.55h1.26a4,4,0,0,1-4.08,3.51" transform="translate(-21.49 -22.87)"/><path class="cls-9" d="M646.07,302a2.09,2.09,0,0,0-1.49-.6,2,2,0,0,0-1.47.6,5.1,5.1,0,0,0,0,5,2,2,0,0,0,1.47.6,2.09,2.09,0,0,0,1.49-.6,5.22,5.22,0,0,0,0-5m.84,5.75a3.4,3.4,0,0,1-4.66,0,5.79,5.79,0,0,1,0-6.48,3.39,3.39,0,0,1,4.66,0,5.79,5.79,0,0,1,0,6.48" transform="translate(-21.49 -22.87)"/><path class="cls-9" d="M660.9,308.54v-5a2,2,0,1,0-4-.13v5.14h-1.19v-5a1.89,1.89,0,0,0-2-2.17,1.93,1.93,0,0,0-2,2.17v5h-1.19v-8.13h1.19v.89a3,3,0,0,1,2.3-1,2.69,2.69,0,0,1,2.5,1.36,3.11,3.11,0,0,1,2.68-1.36,3,3,0,0,1,2.1.76,3,3,0,0,1,.88,2.26v5.21Z" transform="translate(-21.49 -22.87)"/><path class="cls-9" d="M675.42,308.54v-5a2,2,0,1,0-4-.13v5.14H670.2v-5a1.89,1.89,0,0,0-2-2.17,1.93,1.93,0,0,0-2,2.17v5H665v-8.13h1.19v.89a3,3,0,0,1,2.3-1,2.68,2.68,0,0,1,2.49,1.36,3.12,3.12,0,0,1,2.68-1.36,3,3,0,0,1,2.1.76,3,3,0,0,1,.88,2.26v5.21Z" transform="translate(-21.49 -22.87)"/></g><path class="cls-9" d="M679.49,300.41h1.19v8.13h-1.19Zm-.07-3.65h1.34v1.34h-1.34Z" transform="translate(-21.49 -22.87)"/><g class="cls-4"><path class="cls-9" d="M686.24,308.64a4.48,4.48,0,0,1-3.34-1.17l.79-.79a3.32,3.32,0,0,0,2.53.94c1.34,0,2.17-.48,2.17-1.44,0-.71-.41-1.11-1.36-1.19l-1.34-.12c-1.59-.13-2.43-.84-2.43-2.18,0-1.49,1.26-2.38,3-2.38a4.61,4.61,0,0,1,2.93.88l-.78.78a3.46,3.46,0,0,0-2.16-.64c-1.19,0-1.82.51-1.82,1.34s.4,1.11,1.42,1.19l1.31.12c1.42.13,2.4.68,2.4,2.2s-1.34,2.48-3.31,2.48" transform="translate(-21.49 -22.87)"/><path class="cls-9" d="M694.17,308.64a4.48,4.48,0,0,1-3.34-1.17l.79-.79a3.32,3.32,0,0,0,2.53.94c1.34,0,2.16-.48,2.16-1.44,0-.71-.41-1.11-1.36-1.19l-1.34-.12c-1.59-.13-2.43-.84-2.43-2.18,0-1.49,1.26-2.38,3-2.38a4.61,4.61,0,0,1,2.93.88l-.78.78a3.46,3.46,0,0,0-2.16-.64c-1.19,0-1.82.51-1.82,1.34s.4,1.11,1.42,1.19l1.31.12c1.42.13,2.4.68,2.4,2.2s-1.34,2.48-3.31,2.48" transform="translate(-21.49 -22.87)"/></g><path class="cls-9" d="M699.8,300.41H701v8.13H699.8Zm-.07-3.65h1.34v1.34h-1.34Z" transform="translate(-21.49 -22.87)"/><g class="cls-4"><path class="cls-9" d="M708.36,302a2.09,2.09,0,0,0-1.49-.6,2,2,0,0,0-1.47.6,5.1,5.1,0,0,0,0,5,2,2,0,0,0,1.47.6,2.09,2.09,0,0,0,1.49-.6,5.21,5.21,0,0,0,0-5m.84,5.75a3.39,3.39,0,0,1-4.66,0,5.78,5.78,0,0,1,0-6.48,3.39,3.39,0,0,1,4.66,0,5.78,5.78,0,0,1,0,6.48" transform="translate(-21.49 -22.87)"/><path class="cls-9" d="M717.94,308.54v-5a1.89,1.89,0,0,0-2-2.17,1.91,1.91,0,0,0-2,2.17v5h-1.19v-8.13h1.19v.89a2.93,2.93,0,0,1,2.28-1,2.85,2.85,0,0,1,2.08.76,3,3,0,0,1,.84,2.26v5.21Z" transform="translate(-21.49 -22.87)"/></g></svg>