<svg xmlns="http://www.w3.org/2000/svg" viewBox="0 0 1199 746"><defs><style>.a{fill:#818181;}</style></defs><title>Fluid Corpus Manipulation</title><rect class="a" x="126.95" y="594.83" width="37.44" height="147.17"/><path class="a" d="M163.07,542.43a21.89,21.89,0,0,0-1.85-2,22.24,22.24,0,0,0-31.1,0,20.81,20.81,0,0,0-6.34,15.26,21.63,21.63,0,0,0,21.89,21.89A21.77,21.77,0,0,0,166,564H202V362.4H164.8L114.4,473.57q-2.31,5.48-5.18,13.82Q106.34,479,104,473.57L64.64,385.16a91.94,91.94,0,0,0,27.87,4q49.83,0,72.29-49.83l-35.71-13.53q-15.56,25.92-36.58,25.92-21.6,0-33.12-20.16Q48.16,311.41,48.16,285.2a119.06,119.06,0,0,1,3.74-30.53,55.23,55.23,0,0,1,14.12-25q10.65-11,26.49-11,12.39,0,20.74,5.76t16.41,18.15l34.85-15.84q-7.77-19-26.49-32.26-18.44-13.24-45.51-13.25-21.9,0-38.59,9.32V122.46H115V85.6H53.92V43.26h96.19V6.4H15V208H32.48a67.84,67.84,0,0,0-5.92,8.37,122.92,122.92,0,0,0-14.11,33.12A138.06,138.06,0,0,0,7.84,285.2a156.35,156.35,0,0,0,4.32,37.44,123.24,123.24,0,0,0,14.11,33.12A68.13,68.13,0,0,0,31,362.4H15V564h6.62v30.83H.64v32.83h21v78.92q0,38.88,35.72,38.88,18.13,0,32-6.63l4.32-32.54q-12.37,6.33-24.19,6.33-10.36,0-10.37-11.52V627.66H91.94V594.83H59.1V534.06l-5.18,2.48V460.32q0-6.63-.58-15.84,3.46,10.08,6,15.84l49.25,107.14,49-107.14q2.6-5.76,6.05-15.84-.59,9.21-.58,15.84Z"/><polygon class="a" points="217.85 0.06 180.41 17.63 180.41 208 217.85 208 217.85 0.06"/><rect class="a" x="432.95" y="60.83" width="37.44" height="147.17"/><path class="a" d="M451.67,43.55a21.13,21.13,0,0,0,15.55-6.33,21.14,21.14,0,0,0,6.34-15.56A20.18,20.18,0,0,0,467.22,6.4a22.24,22.24,0,0,0-31.1,0,20.81,20.81,0,0,0-6.34,15.26,21.63,21.63,0,0,0,21.89,21.89Z"/><path class="a" d="M207.36,256.11q-18.15,20.75-18.15,56.45,0,36,18.15,56.45t49.53,20.45q31.39,0,49.54-20.45t18.14-56.45q0-35.71-18.43-56.45Q288,235.38,256.89,235.38T207.36,256.11Zm27.36,26.5q8.35-11.24,22.17-11.23,14.12,0,22.18,10.94t8.06,30.24q0,19.29-8.06,30.24-8.07,10.65-22.18,10.66a26.51,26.51,0,0,1-22.17-10.95q-8.07-10.93-8.07-29.95T234.72,282.61Z"/><path class="a" d="M360.66,238.83V386H398.1V303.92q0-31.68,25.35-31.68a45,45,0,0,1,26.78,8.64l5.19-34.27q-13.55-11.24-30-11.23-19.57,0-27.36,16.41v-13Z"/><path class="a" d="M276,197.63q15,13.83,36.58,13.83,25.63,0,39.45-17.28V208h37.44V60.83H352.07v81.22q0,33.4-27.93,33.41-13.25,0-19.59-8.07-6-8.35-6-25.92V60.83H261.07v92.74Q261.07,183.81,276,197.63Z"/><path class="a" d="M1193,440.45q-5.18-12.1-15-17.57a69.93,69.93,0,0,0-19-7.49,95.11,95.11,0,0,0-20.74-2q-34.56,0-60.19,17.28l11.52,30.24q21.31-14.7,45.51-14.69,26.49,0,26.49,23.33V477q-14.4-6.9-33.69-6.91-24.2,0-41.48,12.39-17,12.38-17,36.28,0,23.34,15,36,15.26,12.68,39.17,12.68t38-14.12V564h36.87V470.11Q1198.52,452.26,1193,440.45Zm-31.39,82.08a44.28,44.28,0,0,1-30.81,12.09q-11.82,0-18.44-4.32-6.33-4.32-6.33-11.52,0-8.64,7.77-12.67,7.79-4.32,20.45-4.32a72.24,72.24,0,0,1,27.36,4.9Z"/><path class="a" d="M727.63,413.38q-20.46,0-31.68,14.11V416.83H658.51V621.6l37.44-17V553.34q11.22,14.11,31.39,14.12,27.07,0,44.06-20.74t17-56.16q0-36.57-16.7-56.74Q755.28,413.38,727.63,413.38ZM743.18,520.8q-7.48,10.65-21.6,10.66-18.15,0-25.63-12.1V461.18q8.92-11.81,25.63-11.8,14.11,0,21.6,11.23Q751,471.54,751,490.56,751,510.15,743.18,520.8Z"/><path class="a" d="M599.19,71.49Q588,57.38,567.8,57.38q-26.79,0-44.06,21-17,20.73-17,55.87,0,36.87,16.13,57,16.43,20.16,44.64,20.16,22.18,0,31.68-14.12V208h37.44V.06l-37.44,17Zm0,92.16q-8.36,11.81-25.63,11.81-14.12,0-21.89-11-7.49-10.94-7.49-30.24,0-19.88,7.49-30.24,7.79-10.65,21.89-10.65,16.71,0,25.63,12.09Z"/><path class="a" d="M914,498.05q0,33.41-27.93,33.41-13.26,0-19.59-8.07-6-8.35-6-25.92V416.83H823v92.74q0,30.24,15,44.06t36.58,13.83q25.62,0,39.45-17.28V564h37.44V416.83H914Z"/><path class="a" d="M268.42,591.38q-31.1,0-49.53,20.73-18.15,20.75-18.15,56.45,0,36,18.15,56.45t49.53,20.45q31.4,0,49.54-20.45t18.14-56.45q0-35.71-18.43-56.45Q299.53,591.38,268.42,591.38ZM290.6,698.8q-8.07,10.65-22.18,10.66a26.51,26.51,0,0,1-22.17-11q-8.07-10.93-8.07-30t8.07-29.95q8.35-11.24,22.17-11.23,14.11,0,22.18,10.94t8.06,30.24Q298.66,687.85,290.6,698.8Z"/><path class="a" d="M863.27,389.46q26.51,0,42.05-11.52,15.55-11.82,15.55-33.12,0-19.87-12.67-30.53-12.68-10.95-35.71-18.43-28.8-8.64-28.8-17.86,0-11,18.72-10.94,15.55,0,28.8,12.38l25-20.45q-20.44-23.61-53.85-23.61-23,0-38.31,11.23-15.26,10.94-15.26,30.24,0,18.13,12.1,29.09,12.09,10.65,38.3,19.29Q874.21,331,880,335q6,3.75,6,9.8,0,13-22.17,13-18.72,0-34.56-15.84l-24.77,21q8.64,12.09,24.77,19.3A82.43,82.43,0,0,0,863.27,389.46Z"/><path class="a" d="M734,372.18V386h37.44V238.83H734v81.22q0,33.4-27.93,33.41-13.26,0-19.59-8.07-6-8.36-6-25.92V238.83H643v92.74q0,30.24,15,44.06t36.58,13.83Q720.18,389.46,734,372.18Z"/><path class="a" d="M599.4,356.29q9-18,9-43.73,0-36.57-16.7-56.74-16.41-20.44-44.06-20.44-20.46,0-31.68,14.11V238.83H478.51V413.6q-21.45,1.69-34,17.06V416.83H407.07V564h37.44V482.78q0-33.4,27.94-33.4,13.24,0,19.29,8.06,6.35,8.07,6.34,25.92V564h37.44V471.26q0-30.52-15-44.06a51.58,51.58,0,0,0-4.59-3.84v-48q11.22,14.12,31.39,14.12a56,56,0,0,0,27.58-6.75,22,22,0,0,0,5.76,10.51,21.79,21.79,0,0,0,15.55,6.33,21.63,21.63,0,0,0,21.89-21.89,20.18,20.18,0,0,0-6.34-15.26A20.77,20.77,0,0,0,599.4,356.29ZM563.18,342.8q-7.48,10.65-21.6,10.66-18.15,0-25.63-12.1V283.18q8.92-11.81,25.63-11.8,14.11,0,21.6,11.23Q571,293.54,571,312.56,571,332.15,563.18,342.8Z"/><polygon class="a" points="996.04 564 1033.48 564 1033.48 356.06 996.04 373.63 996.04 564"/><path class="a" d="M485.67,605.2q-14.7-13.83-36.58-13.82-25.35,0-39.46,17.28V594.83H372.19V742h37.44V660.78q0-33.4,27.94-33.4,13.24,0,19.3,8.06,6.33,8.07,6.33,25.92V742h37.44V649.26Q500.64,618.73,485.67,605.2Z"/><path class="a" d="M346.41,422.88a69.8,69.8,0,0,0-19-7.49,95.08,95.08,0,0,0-20.73-2q-34.56,0-60.19,17.28L258,460.9q21.31-14.7,45.51-14.69,26.49,0,26.49,23.33V477q-14.39-6.9-33.69-6.91-24.19,0-41.47,12.39-17,12.38-17,36.28,0,23.34,15,36,15.27,12.68,39.17,12.68t38-14.12V564h36.87V470.11q0-17.85-5.47-29.66Q356.2,428.35,346.41,422.88ZM330,522.53a44.28,44.28,0,0,1-30.81,12.09q-11.81,0-18.43-4.32-6.35-4.32-6.34-11.52,0-8.64,7.78-12.67,7.77-4.32,20.45-4.32a72.22,72.22,0,0,1,27.35,4.9Z"/><rect class="a" x="577.51" y="416.83" width="37.44" height="147.17"/></svg>
